<svg id="b7aa99ec-5d27-4a63-b0a3-af6620012a63" data-name="Layer 1" xmlns="http://www.w3.org/2000/svg" viewBox="0 0 781.9888 196.7749"><defs><style>.f4e09d89-7c7e-4c05-b301-0b12028e6dfb{fill:#58595b;}.a4563127-ed0e-4078-9846-7977a4d4f496{fill:#8ed2cb;}.ba4ace76-c6b9-457b-9c76-18506eded80c{fill:#52c3be;}.ae1c85b9-0637-47ae-b1d9-b04264707a82{font-size:30.494px;fill:#5d5e5e;font-family:MicrosoftTaiLe, Microsoft Tai Le;letter-spacing:0.118em;}</style></defs><path class="f4e09d89-7c7e-4c05-b301-0b12028e6dfb" d="M59.2021,13.2093q15.6468,0,26.7325,9.0156,10.9972,8.9407,10.9975,21.5625,0,12.1472-10.37,21.01-10.3747,8.7787-25.2173,9.4873H59.5571a.9114.9114,0,0,1-.355.0771c.1778,0,.087-.0263-.268-.0771H23.7925v46.7236a4.1183,4.1183,0,0,1-1.61,3.2949,5.3148,5.3148,0,0,1-3.7524,1.41,5.3179,5.3179,0,0,1-3.7568-1.41,4.1183,4.1183,0,0,1-1.61-3.2949V17.9139a4.1191,4.1191,0,0,1,1.61-3.2935A5.3146,5.3146,0,0,1,18.43,13.2093Zm.7144,51.7441a30.0446,30.0446,0,0,0,18.5991-6.35q7.7776-6.1941,7.7779-14.8164,0-8.7818-7.96-14.9766a30.22,30.22,0,0,0-19.1314-6.1933h-35.41V64.9534Z" transform="translate(-6.4526 -8.616)"/><path class="f4e09d89-7c7e-4c05-b301-0b12028e6dfb" d="M120.8076,125.3187a4.58,4.58,0,0,1-2.8613-2.5049,3.8638,3.8638,0,0,1,0-3.6114L130.373,92.9388v-.0772l36.2154-76.5937c.1162-.26.2685-.5479.4453-.8618l.3594-.314a4.7842,4.7842,0,0,1,.3549-.3921,5.2494,5.2494,0,0,1,.45-.314c.2949-.207.4155-.2871.3559-.2348a5.1062,5.1062,0,0,1,1.8775-.7056h.4462c.3589-.0527.5669-.0781.627-.0781a5.0183,5.0183,0,0,1,.5376.0781h.4453a5.1723,5.1723,0,0,1,1.9692.7056l.3545.2348c.2388.211.39.314.4512.314.0557.0522.1773.1841.355.3921.2378.2622.3589.3657.3589.314.1777.3139.3247.6015.4458.8618l36.2148,76.5937v.0772l12.4268,26.2636a3.8615,3.8615,0,0,1,0,3.6114,4.5763,4.5763,0,0,1-2.8614,2.5049,5.4647,5.4647,0,0,1-2.0556.3945,4.9331,4.9331,0,0,1-4.917-2.8994L204.1406,99.45H138.8691L127.78,122.8138a4.9338,4.9338,0,0,1-4.9175,2.8994H121.79S121.4609,125.5823,120.8076,125.3187ZM199.76,90.0394,171.5044,30.3025,143.25,90.0394Z" transform="translate(-6.4526 -8.616)"/><path class="f4e09d89-7c7e-4c05-b301-0b12028e6dfb" d="M341.2144,124.0638l-.0909-.0772-.0869-.0791L259.2227,31.4769v89.5312a4.118,4.118,0,0,1-1.61,3.2949,5.7107,5.7107,0,0,1-7.5147,0,4.1282,4.1282,0,0,1-1.6044-3.2949V17.7562q0-3.3692,3.5751-4.4668a5.3126,5.3126,0,0,1,5.99,1.5673l81.9033,92.4307V17.7562a4.21,4.21,0,0,1,1.52-3.2916,5.5156,5.5156,0,0,1,3.7569-1.4111,5.6327,5.6327,0,0,1,3.8437,1.4111,4.2109,4.2109,0,0,1,1.5195,3.2916V121.3206a1.3838,1.3838,0,0,1-.0874.4707,1.2654,1.2654,0,0,1-.0908.3945,2.5028,2.5028,0,0,1-.1772.4678,3.3,3.3,0,0,0-.1822.3926.9312.9312,0,0,1-.268.39,2.86,2.86,0,0,1-.2686.3946,2.5373,2.5373,0,0,1-.3545.3925c-.061.0538-.1816.1573-.3589.3116-.2988.21-.3891.2656-.269.1562.1167-.05.0615,0-.1772.1621a1.1611,1.1611,0,0,1-.2681.1543,2.4645,2.4645,0,0,1-.5366.2344c-.1221.0518-.2383.1045-.3589.1553-.1782.0517-.3906.1094-.6245.16a1.6715,1.6715,0,0,1-.3584.0782,6.84,6.84,0,0,1-.9829.0781,7.3149,7.3149,0,0,1-1.0733-.0781l-.3584-.0782c-.2993-.1084-.5381-.1845-.7158-.2382a2.774,2.774,0,0,0-.3589-.2334,5.0515,5.0515,0,0,1-.623-.3165,4.0387,4.0387,0,0,0-.3589-.2343c-.1773-.1543-.2686-.2315-.2686-.2315S341.3916,124.2229,341.2144,124.0638Z" transform="translate(-6.4526 -8.616)"/><path class="f4e09d89-7c7e-4c05-b301-0b12028e6dfb" d="M489.0088,125.8343a5.318,5.318,0,0,1-3.7578-1.4121,4.1118,4.1118,0,0,1-1.6084-3.293V18.1912A4.1988,4.1988,0,0,1,485.165,14.9a5.6172,5.6172,0,0,1,3.8438-1.4116l41.2178-.1582q15.8291,0,26.7373,8.7026Q567.87,30.8155,567.87,43.4378a26.235,26.235,0,0,1-4.4707,14.6592,32.7726,32.7726,0,0,1-11.89,10.8994A33.5538,33.5538,0,0,1,565.19,79.8108a25.8232,25.8232,0,0,1,5.0957,15.4483q0,12.621-11.0888,21.56-10.9923,9.0189-26.6455,9.0156Zm5.3623-60.6826,35.8555-.0772a29.3571,29.3571,0,0,0,19.0459-6.35q7.8676-6.3486,7.8681-15.2866,0-8.7063-7.7773-14.74-7.7784-5.9566-19.1367-5.9594l-35.8555.1572Zm0,51.2724h38.1807a30.2151,30.2151,0,0,0,19.1357-6.1933q7.8691-6.1949,7.87-14.9717,0-8.7833-7.7783-14.7412-7.78-6.0307-19.0459-6.0352H494.3711Z" transform="translate(-6.4526 -8.616)"/><path class="f4e09d89-7c7e-4c05-b301-0b12028e6dfb" d="M605.6963,125.8343a5.3154,5.3154,0,0,1-3.7568-1.4121,4.1109,4.1109,0,0,1-1.61-3.293V17.9573a4.1169,4.1169,0,0,1,1.61-3.2934,5.0716,5.0716,0,0,1,3.7568-1.4112L676.69,13.41a5.32,5.32,0,0,1,3.7578,1.4112,4.266,4.266,0,0,1,1.6093,3.2915,4.3445,4.3445,0,0,1-1.6093,3.3721,5.5,5.5,0,0,1-3.7578,1.3335L611.06,22.66V64.84h49.0918a5.2976,5.2976,0,0,1,3.7519,1.4112,4.169,4.169,0,0,1,0,6.583,5.295,5.295,0,0,1-3.7519,1.41H611.06v42.18h65.63a5.3323,5.3323,0,0,1,3.7578,1.41,4.1757,4.1757,0,0,1,0,6.5879,5.33,5.33,0,0,1-3.7578,1.4121Z" transform="translate(-6.4526 -8.616)"/><path class="f4e09d89-7c7e-4c05-b301-0b12028e6dfb" d="M714.1553,13.6443a5.5292,5.5292,0,0,1,3.7568,1.4112,4.2078,4.2078,0,0,1,1.5186,3.2939v98.1528h58.03a5.5184,5.5184,0,0,1,3.7569,1.3321,4.2654,4.2654,0,0,1,1.6054,3.2949,4.339,4.339,0,0,1-1.6054,3.3721,5.51,5.51,0,0,1-3.7569,1.333H714.1553a5.8378,5.8378,0,0,1-3.8438-1.333,4.44,4.44,0,0,1-1.5195-3.3721V18.3494a4.2,4.2,0,0,1,1.5195-3.2939A5.64,5.64,0,0,1,714.1553,13.6443Z" transform="translate(-6.4526 -8.616)"/><polyline class="a4563127-ed0e-4078-9846-7977a4d4f496" points="350.846 117.097 405.747 117.097 405.747 12.943"/><polyline class="ba4ace76-c6b9-457b-9c76-18506eded80c" points="466.738 117.097 412.328 117.097 412.328 0"/><text class="ae1c85b9-0637-47ae-b1d9-b04264707a82" transform="translate(0 186.2778) scale(1.2739 1)">Engaged · Experienced · Streamlined</text></svg>