<?xml version="1.0" encoding="UTF-8" standalone="no"?>
<!-- Created with Inkscape (http://www.inkscape.org/) -->

<svg
   version="1.1"
   id="svg2"
   width="1056"
   height="816"
   viewBox="0 0 1056 816"
   sodipodi:docname="PANABEL - Letrero Zona Libre.ai"
   xmlns:inkscape="http://www.inkscape.org/namespaces/inkscape"
   xmlns:sodipodi="http://sodipodi.sourceforge.net/DTD/sodipodi-0.dtd"
   xmlns="http://www.w3.org/2000/svg"
   xmlns:svg="http://www.w3.org/2000/svg">
  <defs
     id="defs6">
    <clipPath
       clipPathUnits="userSpaceOnUse"
       id="clipPath16">
      <path
         d="M 0,612 H 792 V 0 H 0 Z"
         id="path14" />
    </clipPath>
  </defs>
  <sodipodi:namedview
     id="namedview4"
     pagecolor="#ffffff"
     bordercolor="#000000"
     borderopacity="0.25"
     inkscape:showpageshadow="2"
     inkscape:pageopacity="0.0"
     inkscape:pagecheckerboard="0"
     inkscape:deskcolor="#d1d1d1" />
  <g
     id="g8"
     inkscape:groupmode="layer"
     inkscape:label="PANABEL - Letrero Zona Libre"
     transform="matrix(1.3333333,0,0,-1.3333333,0,816)">
    <g
       id="g10">
      <g
         id="g12"
         clip-path="url(#clipPath16)">
        <g
           id="g18"
           transform="translate(59.9165,382.1299)">
          <path
             d="m 0,0 c 7.271,0.156 13.47,2.272 18.599,6.35 5.185,4.129 7.778,9.067 7.778,14.816 0,5.855 -2.654,10.848 -7.96,14.977 -5.303,4.127 -11.682,6.193 -19.131,6.193 h -35.41 l 0,-42.336 z m -0.714,51.744 c 10.431,0 19.343,-3.006 26.732,-9.015 C 33.35,36.768 37.016,29.583 37.016,21.166 37.016,13.068 33.558,6.064 26.646,0.156 19.729,-5.696 11.323,-8.858 1.428,-9.331 H 0.714 -0.359 c -0.122,-0.051 -0.238,-0.077 -0.355,-0.077 0.177,0 0.087,0.026 -0.268,0.077 h -35.142 v -46.724 c 0,-1.306 -0.537,-2.406 -1.61,-3.295 -1.013,-0.938 -2.264,-1.41 -3.753,-1.41 -1.493,0 -2.744,0.472 -3.757,1.41 -1.073,0.889 -1.61,1.989 -1.61,3.295 V 47.04 c 0,1.305 0.537,2.403 1.61,3.293 1.013,0.939 2.264,1.411 3.757,1.411 z"
             style="fill:#58595b;fill-opacity:1;fill-rule:nonzero;stroke:none"
             id="path20" />
        </g>
        <g
           id="g22"
           transform="translate(199.7603,357.0439)">
          <path
             d="M 0,0 -28.256,59.737 -56.51,0 Z m -78.953,-35.279 c -1.371,0.466 -2.324,1.305 -2.861,2.505 -0.597,1.205 -0.597,2.406 0,3.611 l 12.427,26.264 v 0.077 l 36.215,76.593 c 0.116,0.261 0.269,0.548 0.445,0.862 l 0.36,0.314 c 0.177,0.208 0.294,0.34 0.355,0.392 0.061,0.052 0.207,0.158 0.45,0.314 0.294,0.207 0.415,0.287 0.355,0.235 0.597,0.366 1.22,0.6 1.878,0.706 h 0.446 c 0.359,0.052 0.567,0.078 0.627,0.078 0.057,0 0.239,-0.026 0.538,-0.078 h 0.445 c 0.715,-0.106 1.373,-0.34 1.969,-0.706 l 0.355,-0.235 c 0.239,-0.211 0.389,-0.314 0.451,-0.314 0.056,-0.052 0.177,-0.184 0.355,-0.392 0.238,-0.262 0.359,-0.365 0.359,-0.314 0.178,-0.314 0.325,-0.601 0.446,-0.862 L 12.876,-2.822 v -0.077 l 12.427,-26.264 c 0.598,-1.205 0.598,-2.406 0,-3.611 -0.536,-1.2 -1.489,-2.039 -2.861,-2.505 -0.657,-0.264 -1.341,-0.395 -2.056,-0.395 -2.385,0 -4.026,0.969 -4.917,2.9 L 4.38,-9.41 H -60.891 L -71.98,-32.774 c -0.892,-1.931 -2.532,-2.9 -4.917,-2.9 h -1.073 c 0,0 -0.329,0.131 -0.983,0.395"
             style="fill:#58595b;fill-opacity:1;fill-rule:nonzero;stroke:none"
             id="path24" />
        </g>
        <g
           id="g26"
           transform="translate(341.2144,323.0195)">
          <path
             d="M 0,0 -0.091,0.077 -0.178,0.156 -81.992,92.587 V 3.056 c 0,-1.307 -0.536,-2.407 -1.61,-3.295 -1.016,-0.939 -2.268,-1.41 -3.757,-1.41 -1.489,0 -2.744,0.471 -3.757,1.41 -1.069,0.888 -1.605,1.988 -1.605,3.295 v 103.252 c 0,2.246 1.189,3.735 3.575,4.466 2.44,0.732 4.441,0.21 5.991,-1.567 L -1.252,16.776 v 89.532 c 0,1.305 0.507,2.401 1.52,3.291 1.073,0.942 2.325,1.411 3.757,1.411 1.489,0 2.77,-0.469 3.844,-1.411 1.012,-0.89 1.519,-1.986 1.519,-3.291 V 3.056 2.743 C 9.388,2.584 9.357,2.43 9.301,2.272 9.301,2.168 9.267,2.038 9.21,1.878 9.15,1.67 9.089,1.517 9.033,1.41 8.973,1.303 8.912,1.172 8.851,1.018 8.791,0.861 8.705,0.731 8.583,0.628 8.523,0.519 8.437,0.389 8.314,0.233 8.198,0.077 8.077,-0.057 7.959,-0.159 7.898,-0.213 7.778,-0.316 7.601,-0.471 7.302,-0.681 7.211,-0.736 7.332,-0.627 c 0.116,0.05 0.061,0 -0.178,-0.162 C 7.094,-0.84 7.003,-0.892 6.886,-0.943 6.705,-1.048 6.527,-1.126 6.35,-1.178 6.228,-1.229 6.111,-1.282 5.991,-1.333 5.812,-1.385 5.6,-1.442 5.366,-1.493 5.185,-1.546 5.064,-1.571 5.008,-1.571 4.648,-1.624 4.319,-1.649 4.025,-1.649 c -0.359,0 -0.718,0.025 -1.073,0.078 l -0.359,0.078 c -0.299,0.108 -0.538,0.184 -0.716,0.238 -0.059,0.05 -0.177,0.129 -0.358,0.234 -0.237,0.103 -0.446,0.207 -0.623,0.316 -0.062,0.048 -0.182,0.128 -0.359,0.234 -0.178,0.155 -0.269,0.232 -0.269,0.232 0,0 -0.091,0.08 -0.268,0.239"
             style="fill:#58595b;fill-opacity:1;fill-rule:nonzero;stroke:none"
             id="path28" />
        </g>
        <g
           id="g30"
           transform="translate(494.3711,330.6592)">
          <path
             d="m 0,0 h 38.181 c 7.452,0 13.83,2.063 19.135,6.193 5.247,4.13 7.871,9.12 7.871,14.972 0,5.856 -2.594,10.769 -7.779,14.741 -5.186,4.021 -11.536,6.035 -19.046,6.035 H 37.645 35.855 0 Z m 0,51.272 35.855,0.078 c 7.456,0 13.8,2.116 19.046,6.35 5.245,4.232 7.869,9.332 7.869,15.286 0,5.805 -2.593,10.715 -7.778,14.74 -5.185,3.971 -11.565,5.96 -19.137,5.96 L 0,93.528 Z M -5.362,-9.41 c -1.493,0 -2.745,0.472 -3.758,1.412 -1.072,0.885 -1.609,1.986 -1.609,3.293 V 98.233 c 0,1.305 0.506,2.403 1.523,3.291 1.069,0.942 2.351,1.412 3.844,1.412 l 41.217,0.158 c 10.553,0 19.466,-2.903 26.738,-8.703 7.27,-5.855 10.906,-12.989 10.906,-21.405 0,-5.223 -1.487,-10.111 -4.471,-14.659 -2.861,-4.446 -6.825,-8.077 -11.889,-10.899 5.782,-2.613 10.34,-6.218 13.68,-10.815 3.398,-4.705 5.096,-9.855 5.096,-15.448 0,-8.414 -3.697,-15.599 -11.089,-21.56 C 57.498,-6.407 48.612,-9.41 38.181,-9.41 Z"
             style="fill:#58595b;fill-opacity:1;fill-rule:nonzero;stroke:none"
             id="path32" />
        </g>
        <g
           id="g34"
           transform="translate(605.6963,321.249)">
          <path
             d="m 0,0 c -1.494,0 -2.743,0.473 -3.757,1.412 -1.073,0.885 -1.61,1.986 -1.61,3.293 v 103.172 c 0,1.307 0.537,2.404 1.61,3.293 1.072,0.992 2.324,1.464 3.757,1.412 l 70.993,-0.158 c 1.488,0 2.743,-0.47 3.758,-1.411 1.072,-0.94 1.609,-2.039 1.609,-3.292 0,-1.307 -0.537,-2.43 -1.609,-3.372 -1.015,-0.89 -2.27,-1.333 -3.758,-1.333 l -65.63,0.158 v -42.18 h 49.092 c 1.487,0 2.739,-0.468 3.752,-1.411 1.073,-0.889 1.61,-1.987 1.61,-3.292 0,-1.309 -0.537,-2.403 -1.61,-3.291 -1.013,-0.943 -2.265,-1.41 -3.752,-1.41 H 5.363 V 9.41 h 65.63 C 72.481,9.41 73.736,8.938 74.751,8 75.823,7.106 76.36,6.011 76.36,4.705 76.36,3.398 75.823,2.297 74.751,1.412 73.736,0.473 72.481,0 70.993,0 Z"
             style="fill:#58595b;fill-opacity:1;fill-rule:nonzero;stroke:none"
             id="path36" />
        </g>
        <g
           id="g38"
           transform="translate(714.1553,433.439)">
          <path
             d="m 0,0 c 1.432,0 2.683,-0.472 3.757,-1.411 1.014,-0.89 1.518,-1.986 1.518,-3.294 v -98.153 h 58.031 c 1.489,0 2.739,-0.446 3.757,-1.332 1.074,-0.945 1.605,-2.039 1.605,-3.295 0,-1.307 -0.531,-2.428 -1.605,-3.372 -1.018,-0.888 -2.268,-1.333 -3.757,-1.333 H 0 c -1.489,0 -2.771,0.445 -3.844,1.333 -1.016,0.944 -1.519,2.065 -1.519,3.372 v 102.78 c 0,1.308 0.503,2.404 1.519,3.294 C -2.771,-0.472 -1.489,0 0,0"
             style="fill:#58595b;fill-opacity:1;fill-rule:nonzero;stroke:none"
             id="path40" />
        </g>
        <g
           id="g42"
           transform="translate(357.2983,321.3701)">
          <path
             d="M 0,0 H 54.901 V 104.154"
             style="fill:#8ed2cb;fill-opacity:1;fill-rule:nonzero;stroke:none"
             id="path44" />
        </g>
        <g
           id="g46"
           transform="translate(473.1904,321.3701)">
          <path
             d="M 0,0 H -54.41 V 117.097"
             style="fill:#52c3be;fill-opacity:1;fill-rule:nonzero;stroke:none"
             id="path48" />
        </g>
      </g>
    </g>
    <text
       xml:space="preserve"
       transform="matrix(1,0,0,-1,49.1631,236.6035)"
       style="font-variant:normal;font-weight:normal;font-stretch:normal;font-size:59.7585px;font-family:'Agency FB';-inkscape-font-specification:AgencyFB-Reg;writing-mode:lr-tb;fill:#5d5d5e;fill-opacity:1;fill-rule:nonzero;stroke:none"
       id="text52"><tspan
         x="0 21.333784 43.922497 66.451454 88.860893 111.38985 133.67976 156.20872 167.92139 177.84129 189.55396 210.88774 230.66782 253.19676 275.48669 295.26675 305.90375 328.1937 350.78241 372.83328 395.1232 417.65216 429.36484 439.28473 450.99741 475.97644 491.15512 510.93518 533.2251 555.63452 590.47375 601.11078 611.74774 634.33649 656.6264"
         y="0"
         sodipodi:role="line"
         id="tspan50">Engaged · Experienced · Streamlined</tspan></text>
  </g>
</svg>
